<svg
	version="1.1"
	id="Capa_1"
	xmlns="http://www.w3.org/2000/svg"
	xmlns:xlink="http://www.w3.org/1999/xlink"
	x="0px"
	y="0px"
	viewBox="0 0 212.973 212.973"
	width="24px"
	height="24px"
	style="enable-background:new 0 0 212.973 212.973;"
	xml:space="preserve"
>
	<g>
		<path
			d="M205.473,76.146c-4.143,0-7.5,3.358-7.5,7.5v103.32H15V83.646c0-4.142-3.357-7.5-7.5-7.5S0,79.503,0,83.646v110.82
		c0,4.142,3.357,7.5,7.5,7.5h197.973c4.143,0,7.5-3.358,7.5-7.5V83.646C212.973,79.503,209.615,76.146,205.473,76.146z"
		/>
		<path
			d="M101.171,154.746c1.407,1.407,3.314,2.197,5.304,2.197c1.989,0,3.896-0.79,5.304-2.197l32.373-32.374
		c2.929-2.929,2.929-7.678,0-10.606c-2.93-2.93-7.678-2.929-10.607,0l-19.569,19.569l0.004-112.828c0-4.142-3.357-7.5-7.5-7.5
		c-4.142,0-7.5,3.358-7.5,7.5l-0.004,112.829l-19.546-19.547c-2.929-2.929-7.677-2.93-10.607,0c-2.929,2.929-2.929,7.677,0,10.606
		L101.171,154.746z"
		/>
	</g>
	<g />
	<g />
	<g />
	<g />
	<g />
	<g />
	<g />
	<g />
	<g />
	<g />
	<g />
	<g />
	<g />
	<g />
	<g />
</svg>
