<svg
	version="1.1"
	id="Capa_1"
	xmlns="http://www.w3.org/2000/svg"
	xmlns:xlink="http://www.w3.org/1999/xlink"
	x="0px"
	y="0px"
	viewBox="0 0 360 360"
	style="enable-background:new 0 0 360 360;"
	xml:space="preserve"
>
	<g id="XMLID_1031_">
		<path
			id="XMLID_1032_"
			d="M343.786,123.914h-47.572v-46.08L213.191,0H16.214v360h280v-53.359h47.572V123.914z M313.786,276.641
		h-210V153.914h210V276.641z"
		/>
		<polygon
			id="XMLID_1035_"
			points="193.043,233.709 155.507,233.709 192.755,187.149 192.755,177.165 140.051,177.165 
		140.051,188.781 177.49,188.781 138.994,235.341 138.994,245.325 193.043,245.325 	"
		/>
		<rect id="XMLID_1036_" x="203.41" y="177.165" width="13.248" height="68.16" />
		<path
			id="XMLID_1037_"
			d="M244.114,222.477h16.128c3.135,0,6.015-0.639,8.64-1.92c2.624-1.279,4.863-2.975,6.72-5.088
		c1.855-2.111,3.296-4.526,4.32-7.248c1.023-2.72,1.536-5.52,1.536-8.399c0-2.751-0.545-5.487-1.632-8.208
		c-1.089-2.72-2.592-5.151-4.513-7.296c-1.92-2.144-4.209-3.872-6.863-5.185c-2.656-1.311-5.554-1.968-8.689-1.968h-28.895v68.16
		h13.248V222.477z M244.114,188.781h14.784c1.151,0,2.287,0.239,3.407,0.72c1.119,0.479,2.096,1.2,2.929,2.16
		c0.831,0.96,1.503,2.128,2.016,3.504c0.512,1.377,0.768,2.928,0.768,4.656c0,3.393-0.816,6.081-2.447,8.063
		c-1.633,1.984-3.665,2.977-6.097,2.977h-15.359V188.781z"
		/>
	</g>
	<g />
	<g />
	<g />
	<g />
	<g />
	<g />
	<g />
	<g />
	<g />
	<g />
	<g />
	<g />
	<g />
	<g />
	<g />
</svg>
